<svg xmlns="http://www.w3.org/2000/svg" version="1.1" xmlns:xlink="http://www.w3.org/1999/xlink" xmlns:svgjs="http://svgjs.dev/svgjs" width="2000" height="1500" viewBox="0 0 2000 1500"><rect width="2000" height="1500" fill="#4682a9"></rect><g transform="matrix(0.75,0,0,0.75,248.0139666768215,261.75)"><svg viewBox="0 0 307 200" data-background-color="#4682a9" preserveAspectRatio="xMidYMid meet" height="1302" width="2000" xmlns="http://www.w3.org/2000/svg" xmlns:xlink="http://www.w3.org/1999/xlink"><g id="tight-bounds" transform="matrix(1,0,0,1,0.4064748201438704,0)"><svg viewBox="0 0 306.18705035971226 200" height="200" width="306.18705035971226"><g><svg viewBox="0 0 306.18705035971226 200" height="200" width="306.18705035971226"><g><svg viewBox="0 0 306.18705035971226 200" height="200" width="306.18705035971226"><g id="textblocktransform"><svg viewBox="0 0 306.18705035971226 200" height="200" width="306.18705035971226" id="textblock"><g><svg viewBox="0 0 306.18705035971226 200" height="200" width="306.18705035971226"><g transform="matrix(1,0,0,1,0,0)"><svg width="306.18705035971226" viewBox="3.25 -34.15 53.2 34.75" height="200" data-palette-color="#f9f7f1"><path d="M7.5-34.15L7.5-21.15Q8.8-23 10.5-24 12.2-25 14.05-25L14.05-25Q17.15-25 18.85-22.83 20.55-20.65 20.55-16.5L20.55-16.5 20.55-8.6Q20.55-4.05 18.4-1.73 16.25 0.6 11.75 0.6L11.75 0.6Q7.35 0.6 5.3-1.65 3.25-3.9 3.25-8.5L3.25-8.5 3.25-34.15 7.5-34.15ZM13.05-21.2Q11.6-21.2 10.1-20.1 8.6-19 7.5-17.1L7.5-17.1 7.5-8Q7.5-5.55 8.63-4.25 9.75-2.95 11.75-2.95L11.75-2.95Q16.3-2.95 16.3-8.1L16.3-8.1 16.3-15.9Q16.3-21.2 13.05-21.2L13.05-21.2ZM51.95-24.4L56.45-24.4 50.8 0 45.45 0 40.5-20.7 35.5 0 30.15 0 24.55-24.4 29.05-24.4 33-3.75 37.75-24.4 43.25-24.4 47.95-3.75 51.95-24.4Z" opacity="1" transform="matrix(1,0,0,1,0,0)" fill="#f9f7f1" class="wordmark-text-0" data-fill-palette-color="primary" id="text-0"></path></svg></g></svg></g></svg></g></svg></g></svg></g><defs></defs></svg><rect width="306.18705035971226" height="200" fill="none" stroke="none" visibility="hidden"></rect></g></svg></g></svg>